<?xml version="1.0" encoding="UTF-8" standalone="no"?>
<!-- Created with Inkscape (http://www.inkscape.org/) -->

<svg
   width="63.225723mm"
   height="11.59598mm"
   viewBox="0 0 63.225723 11.59598"
   version="1.1"
   id="svg1"
   inkscape:version="1.4.2 (ebf0e940d0, 2025-05-08)"
   sodipodi:docname="logo.svg"
   xmlns:inkscape="http://www.inkscape.org/namespaces/inkscape"
   xmlns:sodipodi="http://sodipodi.sourceforge.net/DTD/sodipodi-0.dtd"
   xmlns="http://www.w3.org/2000/svg"
   xmlns:svg="http://www.w3.org/2000/svg">
  <sodipodi:namedview
     id="namedview1"
     pagecolor="#505050"
     bordercolor="#eeeeee"
     borderopacity="1"
     inkscape:showpageshadow="0"
     inkscape:pageopacity="0"
     inkscape:pagecheckerboard="0"
     inkscape:deskcolor="#505050"
     inkscape:document-units="mm"
     inkscape:zoom="0.73049944"
     inkscape:cx="119.0966"
     inkscape:cy="21.902823"
     inkscape:window-width="1920"
     inkscape:window-height="1022"
     inkscape:window-x="0"
     inkscape:window-y="0"
     inkscape:window-maximized="1"
     inkscape:current-layer="layer1" />
  <defs
     id="defs1">
    <clipPath
       clipPathUnits="userSpaceOnUse"
       id="clipPath211">
      <path
         d="M 0,0 H 716.99997 V 1046.6758 H 0 Z"
         clip-rule="evenodd"
         id="path211" />
    </clipPath>
    <clipPath
       clipPathUnits="userSpaceOnUse"
       id="clipPath213">
      <path
         d="M 0,0 H 716.99997 V 1046.6758 H 0 Z"
         clip-rule="evenodd"
         id="path213" />
    </clipPath>
    <clipPath
       clipPathUnits="userSpaceOnUse"
       id="clipPath215">
      <path
         d="M 0,0 H 716.99997 V 1046.6758 H 0 Z"
         clip-rule="evenodd"
         id="path215" />
    </clipPath>
    <clipPath
       clipPathUnits="userSpaceOnUse"
       id="clipPath217">
      <path
         d="M 0,0 H 716.99997 V 1046.6758 H 0 Z"
         clip-rule="evenodd"
         id="path217" />
    </clipPath>
    <clipPath
       clipPathUnits="userSpaceOnUse"
       id="clipPath219">
      <path
         d="M 0,0 H 716.99997 V 1046.6758 H 0 Z"
         clip-rule="evenodd"
         id="path219" />
    </clipPath>
    <clipPath
       clipPathUnits="userSpaceOnUse"
       id="clipPath221">
      <path
         d="M 0,0 H 716.99997 V 1046.6758 H 0 Z"
         clip-rule="evenodd"
         id="path221" />
    </clipPath>
    <clipPath
       clipPathUnits="userSpaceOnUse"
       id="clipPath223">
      <path
         d="M 0,0 H 716.99997 V 1046.6758 H 0 Z"
         clip-rule="evenodd"
         id="path223" />
    </clipPath>
    <clipPath
       clipPathUnits="userSpaceOnUse"
       id="clipPath225">
      <path
         d="M 0,0 H 716.99997 V 1046.6758 H 0 Z"
         clip-rule="evenodd"
         id="path225" />
    </clipPath>
    <clipPath
       clipPathUnits="userSpaceOnUse"
       id="clipPath227">
      <path
         d="M 0,0 H 716.99997 V 1046.6758 H 0 Z"
         clip-rule="evenodd"
         id="path227" />
    </clipPath>
    <clipPath
       clipPathUnits="userSpaceOnUse"
       id="clipPath229">
      <path
         d="M 0,0 H 716.99997 V 1046.6758 H 0 Z"
         clip-rule="evenodd"
         id="path229" />
    </clipPath>
    <clipPath
       clipPathUnits="userSpaceOnUse"
       id="clipPath231">
      <path
         d="M 0,0 H 716.99997 V 1046.6758 H 0 Z"
         clip-rule="evenodd"
         id="path231" />
    </clipPath>
  </defs>
  <g
     inkscape:label="Layer 1"
     inkscape:groupmode="layer"
     id="layer1"
     transform="translate(-73.554168,-142.61042)">
    <path
       id="path210"
       d="m 237.05195,33.033676 c -2.70906,-1.88896 -5.91902,-2.900598 -9.20677,-2.901427 -4.55099,0 -7.78983,2.07 -7.78983,5.474372 0,2.85695 2.36156,4.321363 7.03418,4.906421 l 2.72937,0.34214 c 5.2596,0.650092 9.76328,2.812472 9.76328,8.368904 0,6.278537 -5.61377,9.580185 -12.33762,9.580185 -4.41601,0 -9.25381,-1.553263 -12.24648,-4.10568 l 2.12903,-3.15116 c 2.15227,1.88845 6.16708,3.486352 10.12093,3.486352 4.63893,0 8.27897,-1.912509 8.27897,-5.47424 0,-2.925456 -2.59758,-4.321414 -7.42202,-4.927029 l -2.8844,-0.362668 c -5.12462,-0.629564 -9.21024,-3.038282 -9.21024,-8.416857 -0.0169,-6.06288 5.31011,-9.484387 11.85834,-9.484387 4.68279,0 8.25547,1.395985 11.18397,3.445457 z"
       style="fill:#000000;fill-opacity:1;fill-rule:nonzero;stroke:none"
       transform="matrix(0.26458333,0,0,0.26458333,73.390441,137.04952)"
       clip-path="url(#clipPath211)" />
    <path
       id="path212"
       d="m 210.54492,46.178986 c 0,8.594717 -5.73539,12.803305 -12.89092,12.803305 -7.15554,0 -12.89439,-4.215271 -12.89439,-12.803305 V 27.018641 h 3.9068 v 18.859263 c 0,6.456449 3.79535,9.292735 8.98759,9.292735 5.19198,0 8.9606,-2.826131 8.9606,-9.282471 V 27.028906 h 3.92685 l 0.003,19.15008 z"
       style="fill:#000000;fill-opacity:1;fill-rule:nonzero;stroke:none"
       transform="matrix(0.26458333,0,0,0.26458333,73.390441,137.04952)"
       clip-path="url(#clipPath213)" />
    <path
       id="path214"
       d="M 177.96491,58.561299 163.07006,43.003876 h 5.19198 l 15.02983,15.557423 z"
       style="fill:#000000;fill-opacity:1;fill-rule:nonzero;stroke:none"
       transform="matrix(0.26458333,0,0,0.26458333,73.390441,137.04952)"
       clip-path="url(#clipPath215)" />
    <path
       id="path216"
       d="m 173.32304,27.001615 -15.33696,16.002314 h 5.19224 L 178.65,27.001615 Z"
       style="fill:#000000;fill-opacity:1;fill-rule:nonzero;stroke:none"
       transform="matrix(0.26458333,0,0,0.26458333,73.390441,137.04952)"
       clip-path="url(#clipPath217)" />
    <path
       id="path218"
       d="m 157.98928,27.025511 h -3.90654 v 31.505047 h 3.90654 z"
       style="fill:#000000;fill-opacity:1;fill-rule:nonzero;stroke:none"
       transform="matrix(0.26458333,0,0,0.26458333,73.390441,137.04952)"
       clip-path="url(#clipPath219)" />
    <path
       id="path220"
       d="M 147.00445,58.530558 H 124.94739 V 27.028906 h 21.8344 v 3.712299 H 128.8542 v 10.059181 h 17.35077 v 3.736276 H 128.8542 V 54.82155 h 18.15025 z"
       style="fill:#000000;fill-opacity:1;fill-rule:nonzero;stroke:none"
       transform="matrix(0.26458333,0,0,0.26458333,73.390441,137.04952)"
       clip-path="url(#clipPath221)" />
    <path
       id="path222"
       d="m 107.10746,27.028906 h -4.04848 l 1.54872,3.914161 h -3.92713 L 89.624911,58.530558 h 4.048477 l 3.397349,-8.598135 h 15.080353 l 3.41097,8.598135 h 4.19336 z m -8.542266,19.160317 6.072716,-15.235892 6.03556,15.235892 z"
       style="fill:#000000;fill-opacity:1;fill-rule:nonzero;stroke:none"
       transform="matrix(0.26458333,0,0,0.26458333,73.390441,137.04952)"
       clip-path="url(#clipPath223)" />
    <path
       id="path224"
       d="M 90.134381,30.78571 H 79.551031 V 58.530558 H 75.644222 V 30.782288 H 65.037347 v -3.763647 h 25.097034 z"
       style="fill:#000000;fill-opacity:1;fill-rule:nonzero;stroke:none"
       transform="matrix(0.26458333,0,0,0.26458333,73.390441,137.04952)"
       clip-path="url(#clipPath225)" />
    <path
       id="path226"
       d="M 17.436591,21.017587 50.360345,64.844912 V 42.932987 Z"
       style="fill:#000000;fill-opacity:1;fill-rule:nonzero;stroke:none"
       transform="matrix(0.26458333,0,0,0.26458333,73.390441,137.04952)"
       clip-path="url(#clipPath227)" />
    <path
       id="path228"
       d="M 12.774293,21.017587 23.74771,64.844912 h 21.950175 z"
       style="fill:#000000;fill-opacity:1;fill-rule:nonzero;stroke:none"
       transform="matrix(0.26458333,0,0,0.26458333,73.390441,137.04952)"
       clip-path="url(#clipPath229)" />
    <path
       id="path230"
       d="M 8.8514714,21.017587 0.61880914,53.888949 H 17.080659 Z"
       style="fill:#000000;fill-opacity:1;fill-rule:nonzero;stroke:none"
       transform="matrix(0.26458333,0,0,0.26458333,73.390441,137.04952)"
       clip-path="url(#clipPath231)" />
  </g>
</svg>
